<?xml version="1.0" encoding="UTF-8"?><svg id="a" xmlns="http://www.w3.org/2000/svg" viewBox="0 0 415.67 101.52"><defs><style>.b{fill:#1d1d1b;}</style></defs><path class="b" d="M0,.57H19.33L61.43,86.63,97.94,.57h15.75c-5.44,1.72-6.87,6.3-6.87,11.45V89.2c0,5.15,1.43,9.88,6.87,11.6h-23.48c5.44-1.72,7.02-6.3,7.02-11.6V6.73L57.27,100.66,11.88,7.3V88.06c0,6.87,4.3,10.74,10.45,12.74H0c6.16-2,10.31-6.01,10.31-12.74V12.6C10.31,6.3,5.58,2.29,0,.57Z"/><path class="b" d="M125.29,83.48c0-16.61,29.07-23.05,41.67-24.91v-7.59c0-9.16-3.29-20.19-14.46-20.19-5.15,0-14.61,2.43-14.61,8.88,0,2,.72,3.87,.72,6.01,0,3.44-2,5.3-5.44,5.3s-5.01-2.72-5.01-5.73c0-9.74,17.61-16.04,25.63-16.04,19.33,0,21.19,11.03,21.19,27.49,8.59-2.15,17.04-4.87,24.77-9.31,0-3.01-.57-9.02-4.72-9.02l12.89-9.02v12.89c6.3-4.73,13.17-13.03,21.76-13.03,3.01,0,5.87,1.29,5.87,4.58s-2,5.01-5.3,5.01-4.44-2.58-8.73-2.58c-2.58,0-5.87,1.58-7.87,3.29-14.75,12.74-30.93,17.18-49.54,21.19-12.31,2.72-28.78,7.02-28.78,22.62,0,8.88,5.87,14.46,14.6,14.46,5.87,0,10.6-2.43,15.32-5.58-4.87,6.16-12.31,8.88-20.05,8.88-10.74,0-19.9-6.01-19.9-17.61Zm41.67-20.33c2.72-.72,5.3-1.29,8.02-1.86v26.06c0,4.44,1.58,8.88,6.73,8.88,2,0,4.01-.43,5.44-1.86-1,3.58-6.44,6.73-10.02,6.73-8.59,0-10.17-6.44-10.17-13.75v-24.2Zm25.92,37.66c5.58-2,6.87-6.3,6.87-11.74V52.55c2-1,6.44-3.87,8.16-5.44v41.95c0,5.58,1.43,9.31,6.73,11.74h-21.76Z"/><path class="b" d="M242.27,100.8c5.44-1.72,6.87-6.44,6.87-11.74V47.11c0-3.01-.57-8.88-4.73-8.88l12.89-9.02v59.85c0,5.3,1.57,10.02,6.87,11.74h-21.91Zm7.45-80.47l4.01-12.46h8.16l-9.74,12.46h-2.43Z"/><path class="b" d="M273.2,100.8c5.73-2,7.3-6.73,7.3-12.46V48.25c0-3.29-.72-9.45-5.15-9.45l13.17-9.59,.14,59.14c0,5.73,1.57,10.45,7.3,12.46h-22.77Zm20.05-60.57c5.58-6.73,14.03-11.45,22.91-11.45,14.32,0,20.33,11.88,20.33,24.91v34.65c0,5.73,1.72,10.6,7.45,12.46h-22.91c5.73-1.86,7.3-6.87,7.3-12.46V51.98c0-10.02-4.01-19.76-15.46-19.76-7.16,0-14.18,3.72-19.62,8.02Z"/><path class="b" d="M352.95,0c4.15,0,7.02,2.58,7.02,7.45s-2.58,10.31-6.16,13.46l-1-1c2.43-3.29,2.72-7.02,.14-7.02-3.44,0-6.3-2.72-6.3-6.44,0-3.44,2.86-6.44,6.3-6.44Z"/><path class="b" d="M389.03,99.37c8.16,0,21.33-1.86,21.33-12.6,0-18.33-45.96-14.18-45.96-38.37,0-13.17,11.45-20.05,23.48-20.05,5.58,0,19.04,2.72,24.2,5.01v13.46c-3.29-10.17-14.32-17.18-24.77-17.18-7.3,0-17.76,4.15-17.76,12.74,0,20.9,46.11,15.89,46.11,39.23,0,14.75-12.74,19.9-25.49,19.9-8.3,0-18.76-1.86-26.78-4.3v-17.04c4.15,10.88,13.6,19.19,25.63,19.19Z"/></svg>